<?xml version="1.0" encoding="UTF-8"?><svg id="Layer_1" xmlns="http://www.w3.org/2000/svg" viewBox="0 0 312 346"><path d="m69.18,114.58v98.84c0,4.83,2.58,9.3,6.76,11.71l87.27,50.45c4.51,2.61,10.15-.65,10.15-5.86v-27.28l-62.7-36.25c-4.18-2.42-6.76-6.88-6.76-11.71v-71.56l-24.58-14.21c-4.51-2.61-10.15.65-10.15,5.86Z"/><path d="m103.91,95.2v27.73l34.73,20.08v-39.46l-24.58-14.21c-4.51-2.61-10.15.65-10.15,5.86Z"/><path d="m145.43,186.84l27.93,16.15v-32.1c0-4.83-2.58-9.3-6.76-11.71l-27.97-16.17.03,32.14c0,4.83,2.58,9.28,6.76,11.7Z"/><path d="m173.36,242.45l24.58,14.21c4.51,2.61,10.15-.65,10.15-5.86v-27.73l-34.73-20.08v39.46Z"/><path d="m208.09,223.07l24.58,14.21c4.51,2.61,10.15-.65,10.15-5.86v-98.84c0-4.83-2.58-9.3-6.76-11.71l-87.27-50.45c-4.51-2.61-10.15.65-10.15,5.86v27.28l62.7,36.25c4.18,2.42,6.76,6.88,6.76,11.71v71.56Z"/></svg>