<?xml version="1.0" encoding="UTF-8" standalone="no"?>
<!-- Generator: Adobe Illustrator 16.1.0, SVG Export Plug-In . SVG Version: 6.00 Build 0)  -->

<svg
   version="1.1"
   id="Layer_1"
   x="0px"
   y="0px"
   width="48px"
   height="48px"
   viewBox="0 0 48 48"
   enable-background="new 0 0 48 48"
   xml:space="preserve"
   sodipodi:docname="LOFile.svg"
   inkscape:version="1.4 (e7c3feb1, 2024-10-09)"
   xmlns:inkscape="http://www.inkscape.org/namespaces/inkscape"
   xmlns:sodipodi="http://sodipodi.sourceforge.net/DTD/sodipodi-0.dtd"
   xmlns:xlink="http://www.w3.org/1999/xlink"
   xmlns="http://www.w3.org/2000/svg"
   xmlns:svg="http://www.w3.org/2000/svg"><defs
   id="defs2"><pattern
     inkscape:collect="always"
     xlink:href="#Polkadots-med"
     preserveAspectRatio="xMidYMid"
     id="pattern12"
     patternTransform="scale(1)"
     x="0"
     y="0" /><pattern
     patternUnits="userSpaceOnUse"
     width="10"
     height="10"
     patternTransform="translate(0,0) scale(10,10)"
     preserveAspectRatio="xMidYMid"
     id="Polkadots-med"
     inkscape:stockid="Polka dots, medium"
     inkscape:label="Polka dots medium"
     inkscape:collect="always"
     inkscape:isstock="true"><circle
       style="stroke:none"
       cx="2.567"
       cy="0.810"
       r="0.15"
       id="circle406" /><circle
       style="stroke:none"
       cx="3.048"
       cy="2.33"
       r="0.15"
       id="circle408" /><circle
       style="stroke:none"
       cx="4.418"
       cy="2.415"
       r="0.15"
       id="circle410" /><circle
       style="stroke:none"
       cx="1.844"
       cy="3.029"
       r="0.15"
       id="circle412" /><circle
       style="stroke:none"
       cx="6.08"
       cy="1.363"
       r="0.15"
       id="circle414" /><circle
       style="stroke:none"
       cx="5.819"
       cy="4.413"
       r="0.15"
       id="circle416" /><circle
       style="stroke:none"
       cx="4.305"
       cy="4.048"
       r="0.15"
       id="circle418" /><circle
       style="stroke:none"
       cx="5.541"
       cy="3.045"
       r="0.15"
       id="circle420" /><circle
       style="stroke:none"
       cx="4.785"
       cy="5.527"
       r="0.15"
       id="circle422" /><circle
       style="stroke:none"
       cx="2.667"
       cy="5.184"
       r="0.15"
       id="circle424" /><circle
       style="stroke:none"
       cx="7.965"
       cy="1.448"
       r="0.15"
       id="circle426" /><circle
       style="stroke:none"
       cx="7.047"
       cy="5.049"
       r="0.15"
       id="circle428" /><circle
       style="stroke:none"
       cx="4.340"
       cy="0.895"
       r="0.15"
       id="circle430" /><circle
       style="stroke:none"
       cx="7.125"
       cy="0.340"
       r="0.15"
       id="circle432" /><circle
       style="stroke:none"
       cx="9.550"
       cy="1.049"
       r="0.15"
       id="circle434" /><circle
       style="stroke:none"
       cx="7.006"
       cy="2.689"
       r="0.15"
       id="circle436" /><circle
       style="stroke:none"
       cx="8.909"
       cy="2.689"
       r="0.15"
       id="circle438" /><circle
       style="stroke:none"
       cx="9.315"
       cy="4.407"
       r="0.15"
       id="circle440" /><circle
       style="stroke:none"
       cx="7.820"
       cy="3.870"
       r="0.15"
       id="circle442" /><circle
       style="stroke:none"
       cx="8.270"
       cy="5.948"
       r="0.15"
       id="circle444" /><circle
       style="stroke:none"
       cx="7.973"
       cy="7.428"
       r="0.15"
       id="circle446" /><circle
       style="stroke:none"
       cx="9.342"
       cy="8.072"
       r="0.15"
       id="circle448" /><circle
       style="stroke:none"
       cx="8.206"
       cy="9.315"
       r="0.15"
       id="circle450" /><circle
       style="stroke:none"
       cx="9.682"
       cy="9.475"
       r="0.15"
       id="circle452" /><circle
       style="stroke:none"
       cx="9.688"
       cy="6.186"
       r="0.15"
       id="circle454" /><circle
       style="stroke:none"
       cx="3.379"
       cy="6.296"
       r="0.15"
       id="circle456" /><circle
       style="stroke:none"
       cx="2.871"
       cy="8.204"
       r="0.15"
       id="circle458" /><circle
       style="stroke:none"
       cx="4.59"
       cy="8.719"
       r="0.15"
       id="circle460" /><circle
       style="stroke:none"
       cx="3.181"
       cy="9.671"
       r="0.15"
       id="circle462" /><circle
       style="stroke:none"
       cx="5.734"
       cy="7.315"
       r="0.15"
       id="circle464" /><circle
       style="stroke:none"
       cx="6.707"
       cy="6.513"
       r="0.15"
       id="circle466" /><circle
       style="stroke:none"
       cx="5.730"
       cy="9.670"
       r="0.15"
       id="circle468" /><circle
       style="stroke:none"
       cx="6.535"
       cy="8.373"
       r="0.15"
       id="circle470" /><circle
       style="stroke:none"
       cx="4.37"
       cy="7.154"
       r="0.15"
       id="circle472" /><circle
       style="stroke:none"
       cx="0.622"
       cy="7.25"
       r="0.15"
       id="circle474" /><circle
       style="stroke:none"
       cx="0.831"
       cy="5.679"
       r="0.15"
       id="circle476" /><circle
       style="stroke:none"
       cx="1.257"
       cy="8.519"
       r="0.15"
       id="circle478" /><circle
       style="stroke:none"
       cx="1.989"
       cy="6.877"
       r="0.15"
       id="circle480" /><circle
       style="stroke:none"
       cx="0.374"
       cy="3.181"
       r="0.15"
       id="circle482" /><circle
       style="stroke:none"
       cx="1.166"
       cy="1.664"
       r="0.15"
       id="circle484" /><circle
       style="stroke:none"
       cx="1.151"
       cy="0.093"
       r="0.15"
       id="circle486" /><circle
       style="stroke:none"
       cx="1.151"
       cy="10.093"
       r="0.15"
       id="circle488" /><circle
       style="stroke:none"
       cx="1.302"
       cy="4.451"
       r="0.15"
       id="circle490" /><circle
       style="stroke:none"
       cx="3.047"
       cy="3.763"
       r="0.15"
       id="circle492" /></pattern><rect
     x="13.843409"
     y="17.078295"
     width="18.567288"
     height="13.894281"
     id="rect3" /><rect
     x="15.222993"
     y="26.782953"
     width="17.316155"
     height="12.083251"
     id="rect2" /></defs><sodipodi:namedview
   id="namedview2"
   pagecolor="#ffffff"
   bordercolor="#000000"
   borderopacity="0.25"
   inkscape:showpageshadow="2"
   inkscape:pageopacity="0.0"
   inkscape:pagecheckerboard="0"
   inkscape:deskcolor="#d1d1d1"
   inkscape:zoom="10.940372"
   inkscape:cx="5.758488"
   inkscape:cy="16.772739"
   inkscape:window-width="2528"
   inkscape:window-height="1370"
   inkscape:window-x="295"
   inkscape:window-y="25"
   inkscape:window-maximized="0"
   inkscape:current-layer="Layer_1" />
<path
   fill="#FFFFFF"
   d="M25,8H13v32h22V17c0-4.123-8-1-8-1C28,12,27,8,25,8z"
   id="path1" />
<path
   fill="#333333"
   d="M28,6H13h-2v2v32v2h2h22h2v-2V16v-2L28,6z M35,40H13V8h12c2,0,3,4,2,8c0,0,8-3.123,8,1V40z"
   id="path2" />
<text
   xml:space="preserve"
   id="text2"
   style="text-align:start;writing-mode:lr-tb;direction:ltr;white-space:pre;shape-inside:url(#rect2);display:inline;fill:none;fill-rule:evenodd;stroke:#000000;stroke-width:20"><tspan
     x="15.222656"
     y="49.813198"
     id="tspan4"><tspan
       dx="0 6.6210938"
       id="tspan1">LO</tspan></tspan></text><text
   xml:space="preserve"
   id="text3"
   style="text-align:start;writing-mode:lr-tb;direction:ltr;white-space:pre;shape-inside:url(#rect3);shape-padding:0;display:inline;fill:#000000;fill-opacity:1;fill-rule:evenodd;stroke:#000000;stroke-width:1;stroke-dasharray:none"
   transform="translate(2.0931616,9.7998018)"><tspan
     x="13.84375"
     y="28.026089"
     id="tspan5">LO</tspan></text><g
   id="g10"
   transform="translate(-0.15641355,1.3295151)"><rect
     style="fill:#cbcbcb;fill-opacity:1;fill-rule:evenodd;stroke:#000000;stroke-width:0.5;stroke-dasharray:none"
     id="rect4"
     width="11.512388"
     height="9.5143709"
     x="14.509416"
     y="10.323092" /><path
     style="fill:#9c9c9c;fill-opacity:1;fill-rule:evenodd;stroke:none;stroke-width:0.5;stroke-dasharray:none"
     d="m 14.604558,19.647175 c -0.09514,-7.896928 11.322102,0 11.322102,0 l 2e-6,0.04757"
     id="path7"
     sodipodi:nodetypes="ccc" /><ellipse
     style="fill:#949494;fill-opacity:1;fill-rule:evenodd;stroke:none;stroke-width:0.5;stroke-dasharray:none"
     id="path8"
     cx="23.666998"
     cy="12.463825"
     rx="1.1655104"
     ry="1.1417245" /><g
     id="g9"
     transform="matrix(1,0,0,0.74216404,-0.10161807,5.1016801)"><rect
       style="fill:#7f7f7f;fill-opacity:1;fill-rule:evenodd;stroke:none;stroke-width:0.5;stroke-dasharray:none"
       id="rect7"
       width="3.567889"
       height="2.8543112"
       x="15.603568"
       y="13.272547" /><path
       style="fill:#7f7f7f;fill-opacity:1;fill-rule:evenodd;stroke:none;stroke-width:0.50473;stroke-dasharray:none"
       d="m 15.59631,13.279792 1.811397,-1.741606 1.774245,1.742404"
       id="path9"
       sodipodi:nodetypes="ccc"
       inkscape:transform-center-y="-0.1550099" /></g></g><rect
   style="opacity:1;mix-blend-mode:normal;fill:url(#pattern12);fill-opacity:1;fill-rule:evenodd;stroke:#000000;stroke-width:0.5;stroke-dasharray:none"
   id="rect4-9"
   width="11.512388"
   height="9.5143709"
   x="20.40431"
   y="16.737638" /></svg>
